<svg width="301" height="26" viewBox="0 0 301 26" fill="none" xmlns="http://www.w3.org/2000/svg">
<path d="M15.1355 24.9726L6.92964 14.1937V24.9726H0.983887V0.563708H6.92964V11.273L15.0659 0.563708H22.0548L12.5972 12.5248L22.4025 24.9726H15.1355Z" fill="#05A553"/>
<path d="M39.3798 0.563708V5.32727H29.4354V10.4733H36.8763V15.0978H29.4354V24.9726H23.4896V0.563708H39.3798Z" fill="#05A553"/>
<path d="M68.4088 0.563708V24.9726H62.463V10.3342L57.0041 24.9726H52.2057L46.712 10.2995V24.9726H40.7662V0.563708H47.7899L54.6397 17.4622L61.4199 0.563708H68.4088Z" fill="#05A553"/>
<path d="M91.3533 12.4552C92.7673 12.7566 93.9031 13.4636 94.7608 14.5762C95.6184 15.6657 96.0473 16.9174 96.0473 18.3314C96.0473 20.3713 95.3287 21.9939 93.8915 23.1993C92.4775 24.3815 90.4956 24.9726 87.9458 24.9726H76.5758V0.563708H87.5633C90.0436 0.563708 91.9791 1.13163 93.37 2.26746C94.784 3.4033 95.4909 4.94479 95.4909 6.89194C95.4909 8.32912 95.1085 9.52291 94.3435 10.4733C93.6017 11.4237 92.605 12.0843 91.3533 12.4552ZM82.5215 10.4385H86.4158C87.3894 10.4385 88.1312 10.2299 88.6412 9.81266C89.1743 9.37224 89.4409 8.73478 89.4409 7.90029C89.4409 7.06579 89.1743 6.42833 88.6412 5.98791C88.1312 5.54748 87.3894 5.32727 86.4158 5.32727H82.5215V10.4385ZM86.9026 20.1743C87.8994 20.1743 88.6643 19.9541 89.1975 19.5136C89.7538 19.05 90.032 18.3894 90.032 17.5317C90.032 16.674 89.7422 16.0018 89.1627 15.515C88.6064 15.0282 87.8299 14.7848 86.8331 14.7848H82.5215V20.1743H86.9026Z" fill="black"/>
<path d="M103.703 20.3829H111.492V24.9726H97.7573V0.563708H103.703V20.3829Z" fill="black"/>
<path d="M124.133 25.216C121.838 25.216 119.729 24.6829 117.805 23.6166C115.904 22.5503 114.386 21.0667 113.25 19.1659C112.137 17.242 111.581 15.0862 111.581 12.6986C111.581 10.311 112.137 8.16686 113.25 6.26607C114.386 4.36528 115.904 2.88174 117.805 1.81545C119.729 0.749151 121.838 0.216003 124.133 0.216003C126.428 0.216003 128.526 0.749151 130.426 1.81545C132.35 2.88174 133.857 4.36528 134.947 6.26607C136.059 8.16686 136.616 10.311 136.616 12.6986C136.616 15.0862 136.059 17.242 134.947 19.1659C133.834 21.0667 132.327 22.5503 130.426 23.6166C128.526 24.6829 126.428 25.216 124.133 25.216ZM124.133 19.7918C126.08 19.7918 127.633 19.1428 128.792 17.8447C129.974 16.5466 130.565 14.8312 130.565 12.6986C130.565 10.5428 129.974 8.8275 128.792 7.55258C127.633 6.25448 126.08 5.60543 124.133 5.60543C122.163 5.60543 120.586 6.24289 119.404 7.51781C118.245 8.79273 117.666 10.5197 117.666 12.6986C117.666 14.8544 118.245 16.5813 119.404 17.8794C120.586 19.1543 122.163 19.7918 124.133 19.7918Z" fill="black"/>
<path d="M171.773 0.563708L165.41 24.9726H158.213L154.318 8.90863L150.285 24.9726H143.087L136.898 0.563708H143.261L146.773 18.3314L151.119 0.563708H157.656L161.829 18.3314L165.375 0.563708H171.773Z" fill="black"/>
<path d="M178.962 5.32727V10.2647H186.925V14.8544H178.962V20.209H187.968V24.9726H173.016V0.563708H187.968V5.32727H178.962Z" fill="black"/>
<path d="M202.537 24.9726L197.461 15.7584H196.035V24.9726H190.089V0.563708H200.068C201.992 0.563708 203.627 0.899823 204.971 1.57205C206.339 2.24428 207.359 3.1715 208.031 4.35369C208.703 5.51271 209.039 6.81081 209.039 8.24799C209.039 9.87062 208.576 11.3194 207.648 12.5943C206.744 13.8692 205.4 14.7733 203.615 15.3064L209.248 24.9726H202.537ZM196.035 11.5512H199.721C200.81 11.5512 201.622 11.2846 202.155 10.7515C202.711 10.2183 202.989 9.46496 202.989 8.49138C202.989 7.56417 202.711 6.83399 202.155 6.30084C201.622 5.7677 200.81 5.50112 199.721 5.50112H196.035V11.5512Z" fill="black"/>
<path d="M222.724 12.7334C222.724 10.3226 223.246 8.17845 224.289 6.30084C225.332 4.40005 226.781 2.9281 228.635 1.88499C230.513 0.818691 232.634 0.285544 234.998 0.285544C237.896 0.285544 240.376 1.05049 242.439 2.5804C244.502 4.1103 245.881 6.19653 246.577 8.83909H240.04C239.553 7.81916 238.858 7.04261 237.954 6.50947C237.073 5.97632 236.064 5.70974 234.929 5.70974C233.097 5.70974 231.614 6.3472 230.478 7.62212C229.342 8.89704 228.774 10.6008 228.774 12.7334C228.774 14.866 229.342 16.5697 230.478 17.8447C231.614 19.1196 233.097 19.757 234.929 19.757C236.064 19.757 237.073 19.4905 237.954 18.9573C238.858 18.4242 239.553 17.6476 240.04 16.6277H246.577C245.881 19.2702 244.502 21.3565 242.439 22.8864C240.376 24.3931 237.896 25.1465 234.998 25.1465C232.634 25.1465 230.513 24.6249 228.635 23.5818C226.781 22.5155 225.332 21.0435 224.289 19.1659C223.246 17.2883 222.724 15.1441 222.724 12.7334Z" fill="#A5A5A5"/>
<path d="M262.666 24.9726L257.589 15.7584H256.164V24.9726H250.218V0.563708H260.197C262.121 0.563708 263.755 0.899823 265.1 1.57205C266.467 2.24428 267.487 3.1715 268.159 4.35369C268.832 5.51271 269.168 6.81081 269.168 8.24799C269.168 9.87062 268.704 11.3194 267.777 12.5943C266.873 13.8692 265.528 14.7733 263.744 15.3064L269.376 24.9726H262.666ZM256.164 11.5512H259.849C260.939 11.5512 261.75 11.2846 262.283 10.7515C262.84 10.2183 263.118 9.46496 263.118 8.49138C263.118 7.56417 262.84 6.83399 262.283 6.30084C261.75 5.7677 260.939 5.50112 259.849 5.50112H256.164V11.5512Z" fill="#A5A5A5"/>
<path d="M300.543 0.563708V24.9726H294.597V10.3342L289.138 24.9726H284.34L278.846 10.2995V24.9726H272.9V0.563708H279.924L286.774 17.4622L293.554 0.563708H300.543Z" fill="#A5A5A5"/>
</svg>
